<?xml version="1.0" encoding="utf-8"?>
<svg data-v-fde0c5aa="" viewBox="37.384 126.151 224.336 47.839" class="iconLeft" xmlns="http://www.w3.org/2000/svg">
  <g data-v-fde0c5aa="" id="73609a35-47d4-43b9-b3fa-11ee34813593" fill="#ffffff" transform="matrix(1.6498624404764521,0,0,1.6498624404764521,90.93858761333888,135.96791965659654)">
    <path d="M0.84 1.05L0.84 12.60L4.19 12.60C7.36 12.60 10.01 10.19 10.01 6.82C10.01 3.46 7.35 1.05 4.19 1.05ZM3.47 10.25L3.47 3.40L3.88 3.40C5.84 3.40 7.17 4.90 7.17 6.83C7.15 8.76 5.82 10.25 3.88 10.25ZM12.45 0.98C11.63 0.98 10.98 1.64 10.98 2.45C10.98 3.26 11.63 3.92 12.45 3.92C13.26 3.92 13.92 3.26 13.92 2.45C13.92 1.64 13.26 0.98 12.45 0.98ZM11.17 5.42L13.65 5.42L13.65 12.60L11.17 12.60ZM15.08 14.36C15.83 16.11 17.56 16.45 19.05 16.45C21.50 16.45 23.28 15.20 23.28 12.80L23.28 5.42L20.80 5.42L20.80 6.06L20.76 6.06C20.17 5.52 19.40 5.21 18.45 5.21C16.35 5.21 14.88 6.92 14.88 9.02C14.88 11.12 16.35 12.81 18.45 12.81C19.43 12.81 20.27 12.67 20.80 12.08L20.80 12.61C20.80 13.89 19.74 14.29 19.05 14.29C17.98 14.29 17.37 13.80 17.11 13.37ZM17.51 9.02C17.51 8.02 18.26 7.32 19.19 7.32C20.12 7.32 20.86 8.02 20.86 9.02C20.86 10.00 20.16 10.70 19.19 10.70C18.19 10.70 17.51 10.00 17.51 9.02ZM26.24 0.98C25.42 0.98 24.77 1.64 24.77 2.45C24.77 3.26 25.42 3.92 26.24 3.92C27.05 3.92 27.71 3.26 27.71 2.45C27.71 1.64 27.05 0.98 26.24 0.98ZM24.96 5.42L27.44 5.42L27.44 12.60L24.96 12.60ZM29.61 5.42L28.57 5.42L28.57 7.31L29.61 7.31L29.61 10.07C29.61 11.34 30.09 12.81 32.06 12.81C33.08 12.81 33.88 12.36 33.88 12.36L33.26 10.36C33.26 10.36 32.97 10.58 32.65 10.58C32.26 10.58 32.09 10.26 32.09 9.59L32.09 7.31L33.60 7.31L33.60 5.42L32.09 5.42L32.09 2.74L29.61 2.74ZM34.17 9.02C34.17 11.12 35.64 12.81 37.74 12.81C38.72 12.81 39.56 12.38 40.10 11.79L40.12 11.79L40.12 12.60L42.57 12.60L42.57 5.42L40.10 5.42L40.10 6.10C39.51 5.53 38.71 5.21 37.74 5.21C35.64 5.21 34.17 6.92 34.17 9.02ZM36.81 9.02C36.81 8.02 37.55 7.32 38.49 7.32C39.41 7.32 40.15 8.02 40.15 9.02C40.15 10.00 39.45 10.70 38.49 10.70C37.48 10.70 36.81 10.00 36.81 9.02ZM44.25 12.60L46.73 12.60L46.73 0.56L44.25 0.56ZM57.93 10.22C55.29 10.22 54.12 8.37 54.12 6.82C54.12 5.28 55.29 3.43 57.93 3.43C59.28 3.43 60.20 4.14 60.20 4.14L61.32 1.90C61.32 1.90 60.03 0.84 57.53 0.84C54.25 0.84 51.27 3.53 51.27 6.85C51.27 10.15 54.26 12.81 57.53 12.81C60.03 12.81 61.32 11.75 61.32 11.75L60.20 9.51C60.20 9.51 59.28 10.22 57.93 10.22ZM61.81 9.02C61.81 11.23 63.55 12.81 66.14 12.81C68.61 12.81 70.42 11.23 70.42 9.02C70.42 6.78 68.52 5.21 66.14 5.21C63.71 5.21 61.81 6.78 61.81 9.02ZM64.44 9.02C64.44 8.02 65.18 7.32 66.12 7.32C67.05 7.32 67.79 8.02 67.79 9.02C67.79 10.00 67.09 10.70 66.12 10.70C65.11 10.70 64.44 10.00 64.44 9.02ZM71.55 12.60L74.03 12.60L74.03 8.82C74.03 8.64 74.21 7.36 75.50 7.36C76.33 7.36 76.79 7.76 76.79 7.76L77.83 5.66C77.83 5.66 77.18 5.21 76.26 5.21C74.84 5.21 74.06 6.45 74.06 6.45L74.03 6.45L74.03 5.42L71.55 5.42ZM78.53 12.60L81.00 12.60L81.00 8.54C81.00 7.83 81.73 7.14 82.47 7.14C83.27 7.14 83.76 7.83 83.76 8.54L83.76 12.60L86.24 12.60L86.24 7.87C86.24 5.87 84.41 5.21 83.09 5.21C82.31 5.21 81.59 5.61 81.03 6.17L81.00 6.17L81.00 5.42L78.53 5.42ZM95.05 9.35C95.06 9.27 95.06 9.11 95.06 9.02C95.06 6.50 93.39 5.21 91.21 5.21C89.04 5.21 87.26 6.92 87.26 9.02C87.26 11.10 89.04 12.81 91.21 12.81C92.81 12.81 94.12 12.29 94.93 10.93L93.14 10.04C92.54 10.68 92.19 10.84 91.39 10.84C90.76 10.84 89.84 10.46 89.84 9.35ZM89.91 7.98C89.95 7.32 90.43 6.82 91.28 6.82C92.01 6.82 92.53 7.22 92.64 7.98ZM96.19 12.60L98.67 12.60L98.67 8.82C98.67 8.64 98.85 7.36 100.14 7.36C100.97 7.36 101.43 7.76 101.43 7.76L102.47 5.66C102.47 5.66 101.82 5.21 100.90 5.21C99.48 5.21 98.70 6.45 98.70 6.45L98.67 6.45L98.67 5.42L96.19 5.42Z"/>
  </g>
  <g data-v-fde0c5aa="" id="07f1072e-ab7e-4281-a4f3-3fb7568b613a" stroke="none" fill="#ffffff" transform="matrix(1.2288897537002879,0,0,1.2288897537002879,40,130.33776394079538)">
    <circle cx="16" cy="16.021" r="8.066"/>
    <path d="M32 0H0v32h32V0zM16 26.086c-5.551 0-10.066-4.516-10.066-10.065 0-5.55 4.516-10.066 10.066-10.066 5.55 0 10.065 4.516 10.065 10.066.001 5.55-4.515 10.065-10.065 10.065z"/>
  </g>
</svg>